<?xml version="1.0" encoding="utf-8"?>
<!-- Generator: Adobe Illustrator 27.5.0, SVG Export Plug-In . SVG Version: 6.00 Build 0)  -->
<svg version="1.1" id="Layer_1" xmlns="http://www.w3.org/2000/svg" xmlns:xlink="http://www.w3.org/1999/xlink" x="0px" y="0px"
	 viewBox="0 0 640 512" style="enable-background:new 0 0 640 512;" xml:space="preserve">
<style type="text/css">
	.st0{fill:#FFFFFF;}
</style>
<path class="st0" d="M560,160c44.2,0,80-35.8,80-80S604.2,0,560,0s-80,35.8-80,80S515.8,160,560,160z M55.9,512h325.2h75h122.8
	c33.8,0,61.1-27.4,61.1-61.1c0-11.2-3.1-22.2-8.9-31.8l-132-216.3C495,196.1,487.8,192,480,192s-15,4.1-19.1,10.7l-48.2,79L286.8,81
	c-6.6-10.6-18.3-17-30.8-17s-24.1,6.4-30.8,17L8.6,426.4C3,435.3,0,445.6,0,456.1C0,487,25,512,55.9,512z"/>
</svg>
